<?xml version="1.0" standalone="no"?>
<!DOCTYPE svg PUBLIC "-//W3C//DTD SVG 20010904//EN"
 "http://www.w3.org/TR/2001/REC-SVG-20010904/DTD/svg10.dtd">
<svg version="1.0" xmlns="http://www.w3.org/2000/svg"
 width="448.000000pt" height="160.000000pt" viewBox="0 0 448.000000 160.000000"
 preserveAspectRatio="xMidYMid meet">

<g transform="translate(0.000000,160.000000) scale(0.100000,-0.100000)"
fill="#000000" stroke="none">
<path d="M3945 1265 c-5 -2 -28 -6 -50 -10 -35 -6 -37 -8 -20 -18 11 -5 23
-15 27 -21 10 -15 10 -488 0 -503 -4 -7 -19 -16 -32 -22 -19 -7 -3 -10 69 -10
l94 -1 -28 22 -27 21 3 116 c3 92 8 123 22 145 18 27 18 27 -2 16 -21 -11 -21
-9 -21 114 0 147 -3 162 -35 151z"/>
<path d="M1611 1249 c-52 -10 -59 -15 -33 -23 34 -11 42 -59 42 -255 0 -237
-4 -259 -44 -277 -29 -12 -24 -13 69 -14 l100 0 -32 20 -33 20 0 270 c0 210
-3 270 -12 269 -7 -1 -33 -5 -57 -10z"/>
<path d="M2185 1240 c-26 -29 -13 -69 25 -77 17 -3 30 -10 30 -15 0 -19 -23
-54 -54 -81 -32 -30 -30 -31 17 -7 32 16 77 85 77 119 0 66 -57 103 -95 61z"/>
<path d="M160 1221 c0 -15 -2 -50 -5 -77 l-5 -49 19 40 c35 75 88 105 184 105
l49 0 -4 -248 c-3 -271 -4 -272 -63 -298 -27 -12 -15 -13 105 -13 123 0 132 1
104 13 -18 8 -36 20 -40 28 -5 7 -11 127 -14 266 l-5 252 48 0 c85 0 147 -36
178 -105 l18 -40 0 46 c1 26 -2 61 -5 78 l-6 31 -279 0 -279 0 0 -29z"/>
<path d="M1200 1100 c-7 -17 -26 -42 -42 -55 -26 -22 -27 -25 -10 -25 19 0 20
-7 21 -157 1 -147 3 -159 22 -175 37 -31 159 -13 159 24 0 6 -8 4 -18 -5 -23
-21 -52 -22 -78 -3 -17 13 -19 30 -22 165 l-3 150 53 4 53 3 -52 2 -53 2 0 50
c0 57 -12 64 -30 20z"/>
<path d="M852 1009 c-110 -55 -131 -211 -40 -296 66 -62 196 -57 242 9 24 34
19 43 -7 13 -32 -37 -99 -44 -145 -15 -40 25 -71 89 -72 148 l0 42 120 0 c110
0 120 1 120 19 0 27 -39 71 -76 87 -47 20 -92 17 -142 -7z m122 -11 c14 -13
28 -35 32 -50 l6 -28 -90 0 -89 0 5 25 c6 36 50 75 83 75 15 0 39 -10 53 -22z"/>
<path d="M1834 1016 c-38 -17 -47 -30 -39 -57 10 -30 47 -21 64 16 8 17 19 33
25 37 39 27 96 -19 96 -76 0 -49 -22 -71 -92 -91 -80 -22 -108 -46 -108 -96 0
-50 36 -79 94 -78 22 0 34 3 26 6 -47 18 -63 64 -37 111 7 12 37 38 66 57 l53
35 -4 -74 c-2 -56 -8 -80 -23 -97 l-20 -22 21 13 c18 11 24 10 43 -9 28 -28
82 -28 107 0 19 22 19 22 -2 9 -44 -27 -51 -12 -56 134 -5 152 -10 165 -77
184 -50 16 -98 15 -137 -2z"/>
<path d="M2381 1019 c-46 -9 -66 -19 -38 -19 35 0 47 -39 47 -155 0 -115 -5
-132 -45 -153 -16 -9 1 -11 75 -11 85 0 93 1 71 13 -14 8 -28 22 -32 32 -11
27 -10 182 0 226 5 21 5 36 1 33 -5 -3 -10 5 -12 17 -4 26 -11 28 -67 17z"/>
<path d="M2567 1019 c50 -15 63 -50 62 -171 0 -117 -5 -135 -40 -154 -22 -12
-14 -13 71 -13 85 0 93 1 71 13 -35 19 -40 37 -40 159 -1 60 -6 117 -12 129
-13 25 -68 48 -111 47 l-33 -1 32 -9z"/>
<path d="M2864 1016 c-69 -31 -87 -115 -35 -167 l30 -29 -29 -15 c-37 -19 -46
-49 -26 -80 18 -28 32 -32 131 -38 57 -4 73 -9 88 -28 22 -28 16 -64 -18 -98
-50 -51 -186 -35 -201 23 -15 60 22 102 53 60 10 -14 13 -15 13 -3 0 40 -48
51 -80 19 -43 -43 -8 -120 61 -134 130 -26 239 26 239 113 0 75 -54 111 -167
111 -74 0 -99 10 -90 33 3 9 27 17 63 22 71 9 97 18 124 45 24 24 27 86 4 118
-28 41 13 60 45 20 11 -13 24 -19 34 -15 21 8 21 21 1 41 -20 20 -53 20 -81 1
-19 -13 -24 -13 -50 0 -35 18 -68 18 -109 1z m82 -4 c39 -25 48 -138 14 -172
-48 -48 -100 -6 -100 80 0 60 24 100 60 100 8 0 20 -4 26 -8z"/>
<path d="M3234 1011 c-98 -45 -133 -171 -73 -268 55 -89 219 -100 273 -19 9
14 16 31 16 38 -1 7 -7 1 -15 -13 -18 -34 -66 -53 -112 -46 -67 11 -113 77
-113 162 l0 45 121 0 121 0 -7 28 c-20 79 -120 114 -211 73z m108 -2 c16 -9
48 -64 48 -84 0 -3 -40 -5 -90 -5 -56 0 -90 4 -90 10 0 20 30 69 47 79 24 14
59 14 85 0z"/>
<path d="M3635 1017 c-78 -30 -118 -90 -118 -177 0 -104 68 -171 170 -169 46
1 46 1 15 9 -43 10 -88 53 -103 98 -15 46 -6 144 18 184 40 68 107 76 134 16
10 -25 20 -33 39 -33 20 0 25 5 25 25 0 49 -105 76 -180 47z"/>
<path d="M4075 1023 c69 -15 85 -47 85 -168 0 -119 -7 -145 -44 -161 -29 -12
-24 -13 69 -14 l100 0 -32 20 -33 20 0 114 c0 63 -4 126 -10 141 -12 31 -64
55 -117 54 -21 -1 -29 -3 -18 -6z"/>
<path d="M3791 724 c-12 -19 -16 -32 -11 -29 11 7 43 65 36 65 -2 0 -13 -16
-25 -36z"/>
<path d="M3305 392 c-6 -4 -10 -42 -10 -85 0 -74 1 -77 24 -77 17 0 21 3 13
13 -5 6 -10 43 -10 81 -1 74 -3 79 -17 68z"/>
<path d="M258 378 c16 -16 16 -120 0 -136 -9 -9 3 -12 55 -12 62 0 67 2 67 22
0 20 -1 21 -13 4 -8 -11 -23 -17 -38 -14 -19 2 -25 10 -27 37 -3 27 0 33 12
28 10 -4 16 -1 16 8 0 9 -6 12 -15 9 -11 -5 -15 1 -15 25 0 26 4 31 23 31 13
0 28 -5 35 -12 9 -9 12 -8 12 5 0 14 -10 17 -62 17 -48 0 -59 -3 -50 -12z"/>
<path d="M661 381 c-9 -6 -10 -11 -2 -15 6 -4 11 -33 11 -66 0 -60 7 -70 49
-70 21 0 51 30 51 52 0 23 -37 51 -60 45 -17 -4 -20 0 -20 29 0 35 -5 40 -29
25z m73 -77 c19 -19 20 -25 2 -49 -19 -26 -46 -13 -46 23 0 44 17 54 44 26z"/>
<path d="M1030 380 c-10 -6 -11 -10 -2 -10 6 0 12 -11 12 -24 0 -19 -4 -22
-24 -19 -46 9 -73 -79 -27 -91 9 -2 34 -4 55 -5 30 0 37 2 28 11 -7 7 -12 41
-12 80 0 69 -3 75 -30 58z m5 -100 c0 -28 -4 -35 -20 -35 -13 0 -21 8 -23 23
-5 34 5 54 25 50 13 -2 18 -13 18 -38z"/>
<path d="M1203 382 c-8 -5 -9 -13 -3 -22 18 -28 12 -41 -15 -34 -33 8 -55 -11
-55 -46 0 -36 16 -48 67 -47 36 0 41 2 33 16 -4 9 -7 40 -6 68 3 57 -3 76 -21
65z m1 -84 c14 -23 -3 -53 -30 -53 -20 0 -31 33 -20 61 7 19 35 14 50 -8z"/>
<path d="M1500 380 c-10 -6 -11 -10 -2 -10 6 0 12 -11 12 -24 0 -19 -4 -22
-24 -19 -46 9 -73 -79 -27 -91 9 -2 34 -4 55 -5 30 0 37 2 28 11 -7 7 -12 41
-12 80 0 69 -3 75 -30 58z m5 -100 c0 -28 -4 -35 -20 -35 -13 0 -21 8 -23 23
-5 34 5 54 25 50 13 -2 18 -13 18 -38z"/>
<path d="M1716 375 c-25 -26 -19 -43 24 -70 43 -27 47 -34 28 -53 -16 -16 -33
-15 -52 4 -15 14 -16 14 -16 -5 0 -18 6 -21 39 -21 21 0 44 6 51 14 18 23 8
59 -21 73 -33 16 -53 39 -44 53 9 15 31 12 49 -5 8 -8 17 -12 20 -7 16 27 -53
42 -78 17z"/>
<path d="M2800 375 c0 -12 4 -13 19 -5 43 23 51 14 51 -55 0 -50 -4 -66 -17
-74 -14 -8 -8 -10 27 -10 25 0 39 3 33 6 -16 6 -18 143 -2 143 6 0 19 -5 30
-10 15 -8 19 -7 19 5 0 12 -15 15 -80 15 -65 0 -80 -3 -80 -15z"/>
<path d="M3783 382 c-8 -5 -9 -13 -3 -22 14 -21 12 -104 -2 -118 -9 -9 -6 -12
16 -12 24 0 26 2 17 14 -8 9 -11 39 -9 75 3 63 0 74 -19 63z"/>
<path d="M2125 343 c-6 -10 -8 -38 -5 -63 4 -39 8 -45 30 -47 14 -1 18 0 8 3
-13 4 -18 16 -18 44 0 28 5 40 18 43 15 4 15 5 0 6 -9 0 -18 8 -20 16 -2 13
-5 13 -13 -2z"/>
<path d="M439 328 c0 -1 -1 -24 -2 -51 -2 -43 0 -47 22 -47 19 0 21 3 12 14
-7 8 -11 29 -9 47 2 19 -2 34 -9 36 -7 3 -13 3 -14 1z"/>
<path d="M493 319 c20 -12 24 -75 5 -82 -7 -3 -2 -6 12 -6 24 -1 25 2 22 42
-4 43 -15 57 -42 57 -12 -1 -11 -3 3 -11z"/>
<path d="M558 320 c25 -10 31 -57 10 -78 -9 -9 -6 -12 13 -12 23 0 25 3 21 38
-5 45 -18 62 -46 61 -21 0 -21 0 2 -9z"/>
<path d="M838 319 c-21 -12 -24 -59 -6 -77 7 -7 23 -12 37 -12 l26 0 -25 13
c-14 7 -26 20 -28 30 -3 13 4 17 32 17 38 0 44 8 24 28 -15 15 -37 15 -60 1z
m47 -9 c4 -6 -5 -10 -20 -10 -15 0 -24 4 -20 10 3 6 12 10 20 10 8 0 17 -4 20
-10z"/>
<path d="M1308 319 c-21 -12 -24 -59 -6 -77 7 -7 23 -12 38 -12 l25 0 -25 13
c-14 7 -26 20 -28 30 -3 13 4 17 32 17 38 0 44 8 24 28 -15 15 -37 15 -60 1z
m47 -9 c4 -6 -5 -10 -20 -10 -15 0 -24 4 -20 10 3 6 12 10 20 10 8 0 17 -4 20
-10z"/>
<path d="M1850 323 c2 -22 48 -95 54 -85 4 6 0 25 -9 42 -9 17 -13 35 -10 40
3 6 -3 10 -14 10 -12 0 -21 -3 -21 -7z"/>
<path d="M1920 320 c0 -5 4 -10 9 -10 6 0 13 5 16 10 3 6 -1 10 -9 10 -9 0
-16 -4 -16 -10z"/>
<path d="M2007 323 c-14 -13 -6 -42 13 -48 22 -7 28 -35 7 -35 -7 0 -18 5 -25
12 -9 9 -12 8 -12 -5 0 -12 8 -17 30 -17 44 0 51 27 15 56 -16 13 -26 26 -22
30 3 4 13 1 22 -6 12 -10 15 -10 15 4 0 16 -30 22 -43 9z"/>
<path d="M2224 305 c-15 -23 -15 -27 0 -50 16 -24 59 -35 70 -17 2 4 -8 8 -22
7 -21 0 -28 5 -30 23 -3 19 1 22 27 22 33 0 39 8 19 28 -19 19 -46 14 -64 -13z
m51 5 c3 -5 -3 -10 -14 -10 -12 0 -21 5 -21 10 0 6 6 10 14 10 8 0 18 -4 21
-10z"/>
<path d="M2361 320 c-9 -5 -10 -10 -2 -14 15 -10 14 -63 -1 -69 -7 -3 -2 -6
12 -6 23 -1 25 3 25 41 0 36 3 43 20 43 24 0 34 -48 14 -71 -9 -11 -7 -14 12
-14 22 0 24 3 21 45 -3 37 -8 46 -26 49 -34 6 -61 5 -75 -4z"/>
<path d="M2488 314 c24 -17 29 -53 10 -72 -9 -9 -6 -12 16 -12 24 0 27 2 16
15 -7 8 -10 23 -7 34 7 26 -10 51 -36 51 l-21 0 22 -16z"/>
<path d="M2593 314 c-4 -12 2 -24 22 -40 32 -25 27 -46 -5 -26 -17 10 -20 10
-20 -4 0 -11 8 -14 28 -12 37 4 42 40 7 56 -26 12 -34 32 -12 32 7 0 19 -6 26
-12 11 -11 13 -10 9 2 -7 22 -47 25 -55 4z"/>
<path d="M3028 319 c-21 -12 -24 -59 -6 -77 7 -7 23 -12 38 -12 l25 0 -25 13
c-14 7 -26 20 -28 30 -3 14 4 17 33 17 33 0 35 2 25 20 -12 22 -35 25 -62 9z
m47 -9 c4 -6 -5 -10 -20 -10 -15 0 -24 4 -20 10 3 6 12 10 20 10 8 0 17 -4 20
-10z"/>
<path d="M3164 305 c-9 -14 -13 -32 -9 -44 7 -24 51 -39 67 -23 8 8 5 9 -10 5
-26 -6 -43 23 -31 55 9 25 19 28 37 10 13 -13 27 -5 17 11 -12 20 -54 12 -71
-14z"/>
<path d="M3353 320 c20 -13 24 -76 5 -83 -7 -3 -2 -6 12 -6 25 -1 26 1 20 47
-4 41 -8 47 -30 50 -22 2 -23 1 -7 -8z"/>
<path d="M3459 328 c0 -2 -1 -24 -2 -51 -2 -44 0 -47 23 -47 19 0 21 3 12 12
-7 7 -12 29 -12 50 0 21 -4 38 -10 38 -5 0 -10 -1 -11 -2z"/>
<path d="M3513 319 c20 -12 24 -75 5 -82 -7 -3 -2 -6 12 -6 24 -1 25 2 22 42
-4 43 -15 57 -42 57 -12 -1 -11 -3 3 -11z"/>
<path d="M3630 310 c-11 -11 -20 -23 -20 -28 0 -18 33 -52 51 -52 54 0 78 49
41 83 -25 22 -48 21 -72 -3z m60 -5 c7 -9 10 -25 6 -41 -9 -33 -49 -31 -54 4
-7 48 21 69 48 37z"/>
<path d="M3887 312 c-22 -24 -21 -45 1 -65 23 -21 56 -22 76 -1 21 21 20 47
-2 67 -24 22 -55 21 -75 -1z m67 -14 c13 -21 -2 -51 -27 -56 -23 -5 -40 33
-27 59 13 23 38 22 54 -3z"/>
<path d="M4043 318 c-4 -7 -8 -32 -8 -54 -1 -38 1 -41 24 -40 14 0 26 -3 26
-9 0 -5 -12 -10 -27 -10 -14 0 -24 -3 -21 -7 8 -14 60 -8 73 7 18 22 -4 45
-44 46 l-31 1 33 9 c20 6 32 16 32 27 0 35 -40 56 -57 30z m40 -11 c3 -8 1
-20 -4 -28 -11 -19 -34 3 -26 25 8 20 23 21 30 3z"/>
<path d="M4105 320 c3 -5 8 -10 11 -10 2 0 4 5 4 10 0 6 -5 10 -11 10 -5 0 -7
-4 -4 -10z"/>
<path d="M4186 279 c28 -57 42 -60 24 -5 -6 20 -9 40 -5 46 4 6 -5 10 -20 10
l-25 0 26 -51z"/>
<path d="M4236 315 c4 -8 10 -12 15 -9 14 8 10 24 -6 24 -9 0 -12 -6 -9 -15z"/>
<path d="M1855 200 c3 -5 11 -10 16 -10 6 0 7 5 4 10 -3 6 -11 10 -16 10 -6 0
-7 -4 -4 -10z"/>
<path d="M4170 200 c0 -5 5 -10 11 -10 5 0 7 5 4 10 -3 6 -8 10 -11 10 -2 0
-4 -4 -4 -10z"/>
</g>
</svg>
